<svg width="852" height="172" viewBox="0 0 852 172" fill="none" xmlns="http://www.w3.org/2000/svg">
<path d="M277.249 131.93C273.66 133.72 265.566 135.614 255.08 135.614C225.239 135.614 209.861 117.09 209.861 92.601C209.861 63.2355 230.905 46.8512 257.05 46.8512C267.15 46.8512 274.891 48.9212 278.305 50.7105L274.328 66.1475C270.352 64.4635 264.862 62.9549 257.93 62.9549C242.447 62.9549 230.377 72.2873 230.377 91.4784C230.377 108.705 240.652 119.616 258.036 119.616C263.912 119.616 270.493 118.318 274.293 116.809L277.249 131.93Z" fill="#006CE0"/>
<path d="M349.81 102.425C349.81 125.3 333.552 135.755 316.767 135.755C298.433 135.755 284.357 123.721 284.357 103.547C284.357 83.3739 297.659 70.4279 317.787 70.4279C336.966 70.498 349.81 83.6546 349.81 102.425ZM304.415 103.056C304.415 113.792 308.884 121.861 317.259 121.861C324.825 121.861 329.717 114.318 329.717 103.056C329.717 93.7238 326.127 84.251 317.259 84.251C307.899 84.3212 304.415 93.829 304.415 103.056Z" fill="#006CE0"/>
<path d="M362.724 91.8292C362.724 84.0405 362.443 77.4096 362.232 71.9014H379.123L380.002 80.4619H380.389C382.958 76.4974 389.363 70.498 399.744 70.498C412.588 70.498 422.195 78.9533 422.195 97.3374V134.421H402.735V99.7933C402.735 91.7239 399.92 86.2508 392.846 86.2508C387.462 86.2508 384.26 89.9347 382.958 93.5132C382.466 94.6359 382.184 96.6007 382.184 98.39V134.421H362.724V91.8292Z" fill="#006CE0"/>
<path d="M440.915 134.386V86.2158H432.716V71.9014H440.915V69.4455C440.915 61.9024 443.203 53.6225 448.868 48.4651C453.76 43.8691 460.551 42.1851 466.146 42.1851C470.51 42.1851 473.818 42.6762 476.527 43.4832L475.753 58.4291C474.064 57.9379 472.058 57.552 469.454 57.552C463.05 57.552 460.375 62.5339 460.375 68.6737V71.8663H472.938V86.1807H460.481V134.351H440.915V134.386Z" fill="#006CE0"/>
<path d="M502.18 54.4996C502.18 59.8675 498.098 64.1829 491.694 64.1829C485.536 64.1829 481.418 59.8324 481.594 54.4996C481.489 48.851 485.571 44.676 491.87 44.676C498.028 44.676 502.004 48.9212 502.18 54.4996ZM481.981 71.9014H501.441V134.386H481.981V71.9014Z" fill="#006CE0"/>
<path d="M578.753 43.6586V115.722C578.753 122.774 579.034 130.141 579.245 134.351H561.967L561.052 125.124H560.771C556.794 132.176 549.264 135.755 541.135 135.755C526.285 135.755 514.321 123.124 514.321 103.688C514.215 82.6021 527.376 70.4629 542.367 70.4629C550.038 70.4629 556.055 73.1644 558.906 77.5149H559.187V43.6586H578.753ZM559.293 98.3549C559.293 97.3375 559.187 95.899 559.011 94.8816C557.885 89.6189 553.627 85.3036 547.61 85.3036C538.742 85.3036 534.132 93.2326 534.132 103.091C534.132 113.722 539.411 120.318 547.434 120.318C553.099 120.318 557.533 116.458 558.695 110.985C559.082 109.582 559.187 108.178 559.187 106.494V98.3549H559.293Z" fill="#006CE0"/>
<path d="M610.282 109.336C610.951 117.406 618.869 121.195 627.947 121.195C634.633 121.195 640.017 120.318 645.225 118.634L647.794 131.79C641.39 134.351 633.543 135.649 625.132 135.649C603.878 135.649 591.702 123.405 591.702 103.828C591.702 88.005 601.591 70.498 623.338 70.498C643.572 70.498 651.278 86.2157 651.278 101.653C651.278 104.951 650.891 107.898 650.609 109.301L610.282 109.336ZM633.226 96.0042C633.226 91.3029 631.15 83.3739 622.176 83.3739C613.977 83.3739 610.669 90.8118 610.106 96.0042H633.226Z" fill="#006CE0"/>
<path d="M662.609 91.8292C662.609 84.0405 662.328 77.4096 662.116 71.9014H679.007L679.922 80.4619H680.309C682.878 76.4974 689.283 70.498 699.664 70.498C712.508 70.498 722.115 78.9533 722.115 97.3374V134.421H702.584V99.7933C702.584 91.7239 699.769 86.2508 692.696 86.2508C687.312 86.2508 684.11 89.9347 682.808 93.5132C682.315 94.6359 682.034 96.6007 682.034 98.39V134.421H662.574V91.8292H662.609Z" fill="#006CE0"/>
<path d="M783.203 132.808C779.72 134.316 773.21 135.614 765.749 135.614C745.515 135.614 732.531 123.37 732.531 103.688C732.531 85.4088 745.093 70.4629 768.389 70.4629C773.491 70.4629 779.157 71.3751 783.239 72.9188L780.142 87.3384C777.855 86.321 774.371 85.4439 769.268 85.4439C758.993 85.4439 752.377 92.7063 752.483 102.951C752.483 114.423 760.154 120.458 769.655 120.458C774.265 120.458 777.855 119.686 780.81 118.563L783.203 132.808Z" fill="#006CE0"/>
<path d="M810.897 109.336C811.566 117.406 819.484 121.195 828.563 121.195C835.249 121.195 840.633 120.318 845.841 118.634L848.41 131.79C842.005 134.351 834.158 135.649 825.748 135.649C804.493 135.649 792.318 123.405 792.318 103.828C792.318 88.005 802.206 70.498 823.953 70.498C844.187 70.498 851.893 86.2157 851.893 101.653C851.893 104.951 851.506 107.898 851.225 109.301L810.897 109.336ZM833.841 96.0042C833.841 91.3029 831.765 83.3739 822.792 83.3739C814.592 83.3739 811.285 90.8118 810.722 96.0042H833.841Z" fill="#006CE0"/>
<path d="M84.1292 122.353C78.1822 116.318 72.6574 109.827 66.7456 103.758C55.0627 91.724 43.2038 79.8655 31.4505 67.9018C28.4242 64.8144 28.1075 59.657 30.7467 56.4643C33.8082 52.8506 39.2274 52.184 43.4149 54.9557C50.1361 59.3763 56.8221 63.8671 63.5081 68.2526C71.6721 73.6205 79.9768 78.8831 88.1056 84.2861C89.7595 85.3737 90.8504 85.2334 92.3635 83.9002C100.879 76.5325 109.466 69.1648 118.122 61.9725C128.538 53.2366 139.13 44.6409 149.546 35.8699C162.109 25.2744 174.601 14.6439 186.988 3.80286C189.874 1.31188 192.9 0.610197 196.313 1.10138C202.12 1.9434 205.146 9.41634 201.381 14.2229C198.354 18.1172 194.73 21.5555 191.281 25.1341C173.018 44.0796 154.719 63.0251 136.456 82.0056C125.055 93.829 113.688 105.652 102.357 117.511C100.668 119.3 99.3662 121.475 97.466 122.949C95.7769 124.317 85.8535 124.107 84.1292 122.353Z" fill="#006CE0"/>
<path d="M137.336 34.256C129.629 29.0284 122.978 23.3448 115.377 19.4855C83.0031 3.06611 44.0835 13.5212 23.4977 43.6235C13.6446 58.0782 9.10519 74.1117 10.1257 91.4784C12.2019 126.492 36.8345 155.051 70.5812 161.296C105.137 167.716 140.432 146.876 151.904 113.652C155.74 102.495 157.605 91.1626 156.162 79.3743C156.056 78.6376 156.162 77.585 156.62 77.0588C158.872 74.7783 161.265 72.6732 163.622 70.498L164.959 70.8839C165.382 76.9184 166.367 82.9529 166.191 88.9523C165.769 102.705 162.707 115.897 155.845 128.001C142.544 151.472 122.908 166.699 96.0584 170.874C61.819 176.172 30.3948 160.91 12.0259 130.211C5.33991 119.055 2.10248 106.88 0.870849 93.9343C-2.50734 56.6748 19.1342 23.9763 48.5526 10.0479C61.6431 3.83796 75.4022 1.34698 89.9706 2.61001C109.29 4.25897 125.688 11.8021 139.658 24.9587C143.635 28.6776 143.635 28.7127 139.658 32.2562C138.708 33.1333 137.758 33.9052 137.336 34.256Z" fill="#006CE0"/>
</svg>
